<svg width="256" height="256" viewBox="0 0 64 64" xmlns="http://www.w3.org/2000/svg">
  <!-- Thicket logo — leaf trio, app-icon variant (cream background) -->
  <rect x="0" y="0" width="64" height="64" rx="14" fill="#F7EFE3"/>
  <g transform="translate(32,47)">
    <g transform="rotate(-26)">
      <path d="M0,0 C -7.5,-6.5 -6.75,-19.5 0,-26 C 6.75,-19.5 7.5,-6.5 0,0 Z" fill="#71835D"/>
      <line x1="0" y1="-2" x2="0" y2="-23.5" stroke="#F7EFE3" stroke-width="0.6" opacity="0.6"/>
    </g>
    <g transform="rotate(26)">
      <path d="M0,0 C -7.5,-6.5 -6.75,-19.5 0,-26 C 6.75,-19.5 7.5,-6.5 0,0 Z" fill="#92A67D"/>
      <line x1="0" y1="-2" x2="0" y2="-23.5" stroke="#F7EFE3" stroke-width="0.6" opacity="0.6"/>
    </g>
    <g transform="rotate(0)">
      <path d="M0,0 C -8,-7 -7.5,-21.5 0,-29 C 7.5,-21.5 8,-7 0,0 Z" fill="#D2794F"/>
      <line x1="0" y1="-2" x2="0" y2="-26.5" stroke="#F7EFE3" stroke-width="0.6" opacity="0.6"/>
    </g>
    <circle cx="0" cy="1.8" r="1.8" fill="#6B4A34"/>
  </g>
</svg>
