<svg width="256" height="256" viewBox="0 0 64 64" xmlns="http://www.w3.org/2000/svg">
  <!-- Thicket logo — leaf trio, app-icon variant (cream background) -->
  <!-- Colors pinned to globals.css tokens: bg, sage-deep, sage, clay, brown -->
  <rect x="0" y="0" width="64" height="64" rx="14" fill="#f6f3ec"/>
  <g transform="translate(32,47)">
    <g transform="rotate(-26)">
      <path d="M0,0 C -7.5,-6.5 -6.75,-19.5 0,-26 C 6.75,-19.5 7.5,-6.5 0,0 Z" fill="#5f7259"/>
      <line x1="0" y1="-2" x2="0" y2="-23.5" stroke="#f6f3ec" stroke-width="0.6" opacity="0.6"/>
    </g>
    <g transform="rotate(26)">
      <path d="M0,0 C -7.5,-6.5 -6.75,-19.5 0,-26 C 6.75,-19.5 7.5,-6.5 0,0 Z" fill="#8a9a7e"/>
      <line x1="0" y1="-2" x2="0" y2="-23.5" stroke="#f6f3ec" stroke-width="0.6" opacity="0.6"/>
    </g>
    <g transform="rotate(0)">
      <path d="M0,0 C -8,-7 -7.5,-21.5 0,-29 C 7.5,-21.5 8,-7 0,0 Z" fill="#c99c7c"/>
      <line x1="0" y1="-2" x2="0" y2="-26.5" stroke="#f6f3ec" stroke-width="0.6" opacity="0.6"/>
    </g>
    <circle cx="0" cy="1.8" r="1.8" fill="#6b5b4d"/>
  </g>
</svg>
